<?xml version="1.0" encoding="UTF-8"?>
<svg xmlns="http://www.w3.org/2000/svg" width="640" height="420" viewBox="0 0 640 420" fill="none" role="img" aria-label="Illustration of a QR code sign for reporting an issue.">
  <defs>
    <linearGradient id="card" x1="0" y1="0" x2="1" y2="1">
      <stop stop-color="#FFFFFF"/>
      <stop offset="1" stop-color="#FAFAFA"/>
    </linearGradient>
  </defs>
  <rect x="24" y="24" width="592" height="372" rx="28" fill="url(#card)" stroke="#E4E4E7"/>
  <rect x="60" y="64" width="280" height="36" rx="14" fill="#F4F4F5"/>
  <rect x="78" y="76" width="178" height="12" rx="6" fill="#18181B" opacity="0.75"/>
  <rect x="60" y="126" width="280" height="230" rx="22" fill="#0A0A0A"/>

  <!-- stylized QR -->
  <g transform="translate(84 150)" fill="#FFFFFF" opacity="0.92">
    <rect x="0" y="0" width="48" height="48" rx="10"/>
    <rect x="160" y="0" width="48" height="48" rx="10"/>
    <rect x="0" y="160" width="48" height="48" rx="10"/>
    <rect x="66" y="20" width="16" height="16" rx="4"/>
    <rect x="96" y="38" width="16" height="16" rx="4"/>
    <rect x="66" y="66" width="16" height="16" rx="4"/>
    <rect x="116" y="78" width="16" height="16" rx="4"/>
    <rect x="86" y="98" width="16" height="16" rx="4"/>
    <rect x="136" y="108" width="16" height="16" rx="4"/>
    <rect x="58" y="128" width="16" height="16" rx="4"/>
    <rect x="106" y="140" width="16" height="16" rx="4"/>
  </g>

  <!-- phone -->
  <g transform="translate(380 76)">
    <rect x="0" y="0" width="200" height="300" rx="26" fill="#0A0A0A" stroke="#27272A"/>
    <rect x="16" y="24" width="168" height="248" rx="18" fill="#18181B"/>
    <rect x="76" y="10" width="48" height="8" rx="4" fill="#3F3F46"/>
    <rect x="34" y="52" width="132" height="30" rx="12" fill="#FFFFFF" opacity="0.96"/>
    <rect x="46" y="63" width="92" height="8" rx="4" fill="#18181B" opacity="0.7"/>
    <rect x="34" y="96" width="132" height="140" rx="14" fill="#0A0A0A"/>
    <rect x="52" y="114" width="40" height="40" rx="10" fill="#FFFFFF" opacity="0.92"/>
    <rect x="100" y="118" width="54" height="10" rx="5" fill="#A1A1AA"/>
    <rect x="100" y="136" width="46" height="10" rx="5" fill="#A1A1AA" opacity="0.85"/>
    <rect x="52" y="252" width="116" height="24" rx="12" fill="#2563EB" opacity="0.95"/>
    <rect x="82" y="260" width="56" height="8" rx="4" fill="#FFFFFF" opacity="0.9"/>
  </g>
</svg>

